<?xml version="1.0" standalone="no"?><!DOCTYPE svg PUBLIC "-//W3C//DTD SVG 1.1//EN" "http://www.w3.org/Graphics/SVG/1.1/DTD/svg11.dtd"><svg t="1776742660576" class="icon" viewBox="0 0 1024 1024" version="1.1" xmlns="http://www.w3.org/2000/svg" p-id="9105" xmlns:xlink="http://www.w3.org/1999/xlink" width="200" height="200"><path d="M832 106.667H192c-46.933 0-85.333 38.4-85.333 85.333v640c0 46.933 38.4 85.333 85.333 85.333h640c46.933 0 85.333-38.4 85.333-85.333V192c0-46.933-38.4-85.333-85.333-85.333z m-520.533 582.4c-53.334 0-98.134-42.667-98.134-96V428.8c0-53.333 42.667-96 98.134-96v-2.133h157.866l-12.8 55.466L320 416c-12.8 4.267-21.333 12.8-21.333 25.6v138.667c0 12.8 10.666 23.466 21.333 25.6L454.4 633.6l12.8 55.467H311.467z m256-189.867v27.733h-108.8V499.2h108.8z m243.2 96c0 53.333-42.667 96-98.134 96H554.667l12.8-55.467L701.867 608c12.8-4.267 21.333-12.8 21.333-25.6V443.733c0-12.8-10.667-23.466-21.333-25.6l-134.4-27.733-12.8-55.467H710.4c53.333 0 98.133 42.667 98.133 96V595.2z" fill="#FF6A00" p-id="9106"></path></svg>