<?xml version="1.0" standalone="no"?><!DOCTYPE svg PUBLIC "-//W3C//DTD SVG 1.1//EN" "http://www.w3.org/Graphics/SVG/1.1/DTD/svg11.dtd"><svg t="1776743268312" class="icon" viewBox="0 0 1024 1024" version="1.1" xmlns="http://www.w3.org/2000/svg" p-id="15905" xmlns:xlink="http://www.w3.org/1999/xlink" width="200" height="200"><path d="M512 506.930693m-506.930693 0a506.930693 506.930693 0 1 0 1013.861386 0 506.930693 506.930693 0 1 0-1013.861386 0Z" fill="#696566" p-id="15906"></path><path d="M512 506.930693m-405.544554 0a405.544554 405.544554 0 1 0 811.089108 0 405.544554 405.544554 0 1 0-811.089108 0Z" fill="#FFFFFF" p-id="15907"></path><path d="M494.865743 403.303921L798.872079 89.432713c22.994376 15.623604 43.018139 31.328317 60.071287 47.083723 17.053149 15.765545 33.802139 34.065743 50.246971 54.900594L494.865743 403.314059zM512 424.118495l454.524198-140.926733c12.054812 23.633109 21.453307 45.502099 28.185347 65.596832a347.511129 347.511129 0 0 1 14.630019 61.987485L512 424.118495zM503.716752 448.836436l514.788119 39.692673c0.95303 17.306614 0.141941 38.932277-2.402851 64.897267-2.554931 25.96499-6.184554 49.435881-10.89901 70.412674l-501.486258-174.992476z" fill="#83B8E2" p-id="15908"></path><path d="M293.512871 378.302099v-27.526337l87.496238-87.47596v-7.948673a10.067644 10.067644 0 1 1 20.135287 0v7.948673l87.486099 87.47596v27.526337h-13.991287v97.340832h13.991287v47.590653h-13.991287l29.503366 490.759604c-45.512238-2.382574-85.194772-7.745901-119.047604-16.08998-33.842693-8.333941-67.604277-21.06804-101.264475-38.192158l32.747723-436.467327H293.512871v-47.600792h15.998733v-97.340832H293.512871z" fill="#4FA434" p-id="15909"></path><path d="M311.782653 586.468119l171.271604 76.749307 1.571486 26.309703-174.586931-79.162297zM307.362218 645.241663l179.625822 80.703367 1.470099 27.100515-182.900594-82.649981zM302.343604 713.210931l188.933069 86.076831 1.926337 27.637862-193.252119-86.725703zM297.051248 782.143366l198.483643 90.030891 1.68301 27.648-202.204515-89.473267zM335.081188 378.44404h115.093545v97.462495h-29.128238v-43.271604a29.33101 29.33101 0 1 0-58.66202 0v43.271604H335.081188v-97.462495z" fill="#FFFFFF" p-id="15910"></path></svg>