<?xml version="1.0" standalone="no"?><!DOCTYPE svg PUBLIC "-//W3C//DTD SVG 1.1//EN" "http://www.w3.org/Graphics/SVG/1.1/DTD/svg11.dtd"><svg t="1776841742050" class="icon" viewBox="0 0 1024 1024" version="1.1" xmlns="http://www.w3.org/2000/svg" p-id="19446" xmlns:xlink="http://www.w3.org/1999/xlink" width="200" height="200"><path d="M923.927 956.51h30.255V809.89h-27.927v146.62z m-114.036-62.837h51.2v-27.928h-51.2v-27.927h74.473v-27.927H779.636v146.618h109.382v-27.927h-79.127v-34.91z m-116.364 13.963l-32.582-97.745h-23.272L605.09 909.964 574.836 809.89h-32.581l51.2 144.29h25.6l32.581-95.417 32.582 95.418h25.6l48.873-144.291h-27.927l-37.237 97.745zM460.8 809.891h27.927l62.837 144.29h-30.255l-11.636-27.926h-67.491l-13.964 27.927h-27.927L460.8 809.89z m13.964 37.236l-20.946 51.2h44.218l-23.272-51.2z m-118.691 55.855c0 9.309-9.31 27.927-34.91 27.927s-30.254-27.927-30.254-27.927v-90.764h-30.254v95.418s2.327 53.528 62.836 53.528 62.836-55.855 62.836-55.855v-93.09h-30.254v90.763z m-165.237-34.91h-67.49v-58.181H93.09v144.29h27.927V896h67.491v58.182h27.927V809.89h-25.6v58.182z" fill="#090506" p-id="19447"></path><path d="M449.164 584.145s2.327 0 0-2.327C346.764 353.745 204.8 181.528 204.8 181.528S128 256 132.655 328.144c2.327 55.855 44.218 88.437 44.218 88.437 67.49 65.163 230.4 148.945 267.636 167.563h4.655zM425.89 640c0-2.327-4.655-2.327-4.655-2.327l-269.963 9.309c30.254 53.527 79.127 93.09 130.327 81.454 34.91-9.309 116.364-65.163 141.964-83.781L425.89 640z m2.327-25.6c2.327-2.327 0-4.655 0-4.655-118.69-81.454-349.09-204.8-349.09-204.8-20.946 65.164 6.981 118.691 6.981 118.691 27.927 62.837 83.782 81.455 83.782 81.455 25.6 11.636 51.2 11.636 51.2 11.636h202.473c4.654 0 4.654-2.327 4.654-2.327zM537.6 560.873c2.327 0 4.655-2.328 4.655-2.328 25.6-37.236 141.963-211.781 167.563-316.509 0 0 13.964-51.2 0-86.109 0 0-16.29-65.163-88.436-83.782 0 0-20.946-4.654-41.891-6.981 0 0-81.455 102.4-41.891 493.381-2.327 2.328 0 2.328 0 2.328z m62.836 76.8s-2.327 0-2.327 2.327v4.655c25.6 18.618 104.727 74.472 141.964 83.781 0 0 69.818 23.273 130.327-81.454l-269.964-9.31z m-27.927-53.528h4.655c39.563-18.618 200.145-102.4 267.636-167.563 0 0 41.89-34.91 44.218-88.437 4.655-74.472-72.145-146.618-72.145-146.618S674.909 351.418 572.509 579.491c0 0-2.327 2.327 0 4.654z m370.036-176.872c-16.29 9.309-34.909 18.618-51.2 27.927l-62.836 34.91c-34.909 20.945-69.818 39.563-104.727 60.508-13.964 6.982-25.6 16.291-39.564 23.273-6.982 4.654-30.254 18.618-37.236 20.945-9.31 6.982-18.618 11.637-27.927 18.619-9.31 4.654-16.291 11.636-25.6 16.29-4.655 4.655 2.327 6.982 6.981 6.982h209.455c34.909-4.654 69.818-20.945 95.418-46.545 9.31-9.31 18.618-23.273 25.6-34.91 6.982-11.636 11.636-25.6 16.291-39.563 2.327-6.982 2.327-16.29 4.655-23.273 0-9.309 2.327-16.29 0-25.6 0-6.981 0-11.636-2.328-18.618-2.327-6.982-2.327-16.29-6.982-20.945z m-458.472 153.6c-2.328 0-4.655-2.328-4.655-2.328-25.6-37.236-141.963-211.781-165.236-316.509 0 0-13.964-51.2 0-86.109 0 0 16.29-65.163 88.436-83.782 0 0 20.946-4.654 41.891-6.981 0 0 81.455 102.4 41.891 493.381 0 2.328-2.327 2.328-2.327 2.328z" fill="#C72127" p-id="19448"></path></svg>